REM DIRINDEX 1\2,1\3
REM DIRNAME folder01,folder02,folder03
TITLE ""
FILE "DISC2Track20.mp3" MP3
  TRACK 01 AUDIO
    TITLE "0:"
    INDEX 01 00:00:00
  TRACK 02 AUDIO
    TITLE "3:cjc145_1908"
    INDEX 01 00:00:09
  TRACK 03 AUDIO
    TITLE "0:"
    INDEX 01 00:04:38
  TRACK 04 AUDIO
    TITLE "2:cjc145_1909"
    INDEX 01 00:05:46
  TRACK 05 AUDIO
    TITLE "2:cjc145_1910"
    INDEX 01 00:09:06
  TRACK 06 AUDIO
    TITLE "2:cjc145_1911"
    INDEX 01 00:11:50
  TRACK 07 AUDIO
    TITLE "0:"
    INDEX 01 00:14:02
  TRACK 08 AUDIO
    TITLE "2:cjc145_1912"
    INDEX 01 00:14:51
  TRACK 09 AUDIO
    TITLE "2:cjc145_1913"
    INDEX 01 00:16:57
  TRACK 10 AUDIO
    TITLE "2:cjc145_1914"
    INDEX 01 00:20:18
  TRACK 11 AUDIO
    TITLE "0:"
    INDEX 01 00:23:38
  TRACK 12 AUDIO
    TITLE "2:cjc145_1915"
    INDEX 01 00:24:08
  TRACK 13 AUDIO
    TITLE "2:cjc145_1916"
    INDEX 01 00:25:60
  TRACK 14 AUDIO
    TITLE "2:cjc145_1917"
    INDEX 01 00:28:17
  TRACK 15 AUDIO
    TITLE "0:"
    INDEX 01 00:30:26
  TRACK 16 AUDIO
    TITLE "2:cjc145_1918"
    INDEX 01 00:31:00
  TRACK 17 AUDIO
    TITLE "2:cjc145_1919"
    INDEX 01 00:34:14
  TRACK 18 AUDIO
    TITLE "2:cjc145_1920"
    INDEX 01 00:37:52
  TRACK 19 AUDIO
    TITLE "0:"
    INDEX 01 00:40:72
  TRACK 20 AUDIO
    TITLE "2:cjc145_1921"
    INDEX 01 00:41:40
  TRACK 21 AUDIO
    TITLE "2:cjc145_1922"
    INDEX 01 00:46:27
  TRACK 22 AUDIO
    TITLE "2:cjc145_1923"
    INDEX 01 00:50:46
  TRACK 23 AUDIO
    TITLE "0:"
    INDEX 01 00:54:46
  TRACK 24 AUDIO
    TITLE "2:cjc145_1924"
    INDEX 01 00:55:16
  TRACK 25 AUDIO
    TITLE "2:cjc145_1925"
    INDEX 01 00:58:54
  TRACK 26 AUDIO
    TITLE "2:cjc145_1926"
    INDEX 01 01:02:05
  TRACK 27 AUDIO
    TITLE "0:"
    INDEX 01 01:05:21
  TRACK 28 AUDIO
    TITLE "2:cjc145_1927"
    INDEX 01 01:05:71
  TRACK 29 AUDIO
    TITLE "2:cjc145_1928"
    INDEX 01 01:09:57
  TRACK 30 AUDIO
    TITLE "2:cjc145_1929"
    INDEX 01 01:14:47
  TRACK 31 AUDIO
    TITLE "0:"
    INDEX 01 01:19:21
  TRACK 32 AUDIO
    TITLE "2:cjc145_1930"
    INDEX 01 01:19:66
  TRACK 33 AUDIO
    TITLE "2:cjc145_1931"
    INDEX 01 01:24:00
  TRACK 34 AUDIO
    TITLE "2:cjc145_1932"
    INDEX 01 01:26:42
  TRACK 35 AUDIO
    TITLE "0:"
    INDEX 01 01:28:63
  TRACK 36 AUDIO
    TITLE "2:cjc145_1933"
    INDEX 01 01:29:33
  TRACK 37 AUDIO
    TITLE "2:cjc145_1934"
    INDEX 01 01:33:62
  TRACK 38 AUDIO
    TITLE "2:cjc145_1935"
    INDEX 01 01:38:38
  TRACK 39 AUDIO
    TITLE "0:"
    INDEX 01 01:42:73
  TRACK 40 AUDIO
    TITLE "2:cjc145_1936"
    INDEX 01 01:43:49
  TRACK 41 AUDIO
    TITLE "2:cjc145_1937"
    INDEX 01 01:46:66
  TRACK 42 AUDIO
    TITLE "2:cjc145_1938"
    INDEX 01 01:49:55
  TRACK 43 AUDIO
    TITLE "0:"
    INDEX 01 01:52:30
  TRACK 44 AUDIO
    TITLE "2:cjc145_1939"
    INDEX 01 01:53:02
  TRACK 45 AUDIO
    TITLE "2:cjc145_1940"
    INDEX 01 01:56:14
  TRACK 46 AUDIO
    TITLE "2:cjc145_1941"
    INDEX 01 01:59:24
  TRACK 47 AUDIO
    TITLE "0:"
    INDEX 01 02:02:05
  TRACK 48 AUDIO
    TITLE "2:cjc145_1942"
    INDEX 01 02:02:52
  TRACK 49 AUDIO
    TITLE "2:cjc145_1943"
    INDEX 01 02:05:74
  TRACK 50 AUDIO
    TITLE "2:cjc145_1944"
    INDEX 01 02:08:60
  TRACK 51 AUDIO
    TITLE "0:"
    INDEX 01 02:11:35
  TRACK 52 AUDIO
    TITLE "2:cjc145_1945"
    INDEX 01 02:11:74
  TRACK 53 AUDIO
    TITLE "2:cjc145_1946"
    INDEX 01 02:15:45
  TRACK 54 AUDIO
    TITLE "2:cjc145_1947"
    INDEX 01 02:18:31
  TRACK 55 AUDIO
    TITLE "0:"
    INDEX 01 02:21:02
  TRACK 56 AUDIO
    TITLE "2:cjc145_1948"
    INDEX 01 02:21:51
  TRACK 57 AUDIO
    TITLE "2:cjc145_1949"
    INDEX 01 02:23:68
  TRACK 58 AUDIO
    TITLE "2:cjc145_1950"
    INDEX 01 02:26:31
  TRACK 59 AUDIO
    TITLE "0:"
    INDEX 01 02:28:53
  TRACK 60 AUDIO
    TITLE "2:cjc145_1951"
    INDEX 01 02:29:25
  TRACK 61 AUDIO
    TITLE "2:cjc145_1952"
    INDEX 01 02:32:41
  TRACK 62 AUDIO
    TITLE "2:cjc145_1953"
    INDEX 01 02:36:59
  TRACK 63 AUDIO
    TITLE "0:"
    INDEX 01 02:40:52
  TRACK 64 AUDIO
    TITLE "2:cjc145_1954"
    INDEX 01 02:41:26
  TRACK 65 AUDIO
    TITLE "2:cjc145_1955"
    INDEX 01 02:45:69
  TRACK 66 AUDIO
    TITLE "2:cjc145_1956"
    INDEX 01 02:49:34
  TRACK 67 AUDIO
    TITLE "0:"
    INDEX 01 02:52:56
